<svg xmlns="http://www.w3.org/2000/svg" width="49.038" height="48.645" viewBox="0 0 49.038 48.645">
  <g id="expense_rpt" transform="translate(-42.769 -170.348)">
    <g id="Group_2" data-name="Group 2" transform="translate(53.394 183.032)">
      <path id="Path_49" data-name="Path 49" d="M153.213,302.2h37.6v21.25h-37.6Z" transform="translate(-153.213 -302.198)" fill="#009698"/>
      <path id="Path_50" data-name="Path 50" d="M153.213,302.2h37.6v21.25h-37.6Z" transform="translate(-153.213 -302.198)" fill="#009698"/>
      <path id="Path_51" data-name="Path 51" d="M153.213,302.2h37.6v21.25h-37.6Z" transform="translate(-153.213 -302.198)" fill="#009698"/>
      <path id="Path_52" data-name="Path 52" d="M153.213,302.2h37.6v21.25h-37.6Z" transform="translate(-153.213 -302.198)" fill="#009698"/>
    </g>
    <path id="Path_53" data-name="Path 53" d="M235.245,259.72v4.086H204.188l29.447-3.874Z" transform="translate(-145.89 -80.774)" fill="#007579"/>
    <path id="Path_54" data-name="Path 54" d="M210.652,221.328l.025.213-29.447,3.874h-2.444l31.866-8.173Z" transform="translate(-122.932 -42.383)" fill="#006468"/>
    <path id="Path_55" data-name="Path 55" d="M280.43,336.181a7.356,7.356,0,1,1-6.6,10.609,3.324,3.324,0,0,0,.6-1.872c-.008-.2-.025-.384-.049-.572a3.332,3.332,0,0,0-.907-1.741,3.008,3.008,0,0,0-.3-.262A7.356,7.356,0,0,1,280.43,336.181Z" transform="translate(-208.238 -149.88)" fill="#ffcd00"/>
    <path id="Path_56" data-name="Path 56" d="M340.691,343.537a7.356,7.356,0,0,1-7.356,7.356,7.573,7.573,0,0,1-1.626-.18,7.356,7.356,0,0,0,.008-14.344,7.025,7.025,0,0,1,1.618-.188A7.356,7.356,0,0,1,340.691,343.537Z" transform="translate(-261.144 -149.88)" fill="#ddb200"/>
    <path id="Path_57" data-name="Path 57" d="M73.823,202.132c.025.188.041.376.049.572a3.324,3.324,0,0,1-.6,1.872,2.976,2.976,0,0,1-.36.433l-6.939,6.939,2.648,2.648a4.9,4.9,0,0,1,1.438,3.473v2.869H54.3l-2.91-10.183a3.357,3.357,0,0,1-.123-.9v-10.11a3.208,3.208,0,0,1,.441-1.635l10.184-17.645a3.27,3.27,0,1,1,5.664,3.269L63.533,190.7h-2.46v17.163l7.217-7.47a3.269,3.269,0,0,1,4.323-.262,3.007,3.007,0,0,1,.3.262A3.332,3.332,0,0,1,73.823,202.132Z" transform="translate(-7.68 -7.666)" fill="#ffc477"/>
    <path id="Path_58" data-name="Path 58" d="M181.37,396.318a3.324,3.324,0,0,1-.6,1.872,2.977,2.977,0,0,1-.36.433l-6.939,6.939,2.648,2.648a4.9,4.9,0,0,1,1.438,3.473v2.869h-3.269v-2.869a4.9,4.9,0,0,0-1.438-3.473l-2.648-2.648,6.939-6.939a2.971,2.971,0,0,0,.36-.433,3.324,3.324,0,0,0,.6-1.872c-.008-.2-.025-.384-.049-.572a3.331,3.331,0,0,0-.907-1.741,3.009,3.009,0,0,0-.3-.262,2.756,2.756,0,0,0-.376-.253,3.269,3.269,0,0,1,3.645.253,3.01,3.01,0,0,1,.3.262,3.332,3.332,0,0,1,.907,1.741C181.346,395.934,181.362,396.122,181.37,396.318Z" transform="translate(-115.178 -201.28)" fill="#ffa733"/>
    <path id="Path_59" data-name="Path 59" d="M86.238,616.539v4.9H68.257v-4.9H86.238Z" transform="translate(-23.036 -403.267)" fill="#2488ff"/>
    <path id="Path_60" data-name="Path 60" d="M129.415,182.145a3.281,3.281,0,0,1-.433,1.626l-4.2,6.963-1.552.561-.728,3.525v16.346h-3.269V194.821l6.481-11.05a3.275,3.275,0,0,0-1.2-4.462,3.269,3.269,0,0,1,4.9,2.836Z" transform="translate(-69.107 -7.702)" fill="#ffa733"/>
    <path id="Path_61" data-name="Path 61" d="M510.032,302.2H513.3v21.25h-3.269Z" transform="translate(-422.312 -119.166)" fill="#007579"/>
    <path id="Path_62" data-name="Path 62" d="M90.989,182.215h-.817v-3.269a.817.817,0,0,0-.819-.816.8.8,0,0,0-.105.007l-.711.09v-3.367a.8.8,0,0,0-.319-.646.829.829,0,0,0-.7-.147l-29.979,7.691,3.048-5.28a4.14,4.14,0,0,0,.539-2.035,4.087,4.087,0,0,0-7.625-2.051L43.325,190.028a4.064,4.064,0,0,0-.556,2.051v10.11a4.026,4.026,0,0,0,.155,1.12l2.607,9.145h-.311a.817.817,0,0,0-.817.817v4.9a.817.817,0,0,0,.817.817H63.2a.817.817,0,0,0,.817-.817v-4.9a.817.817,0,0,0-.817-.817V210.4a5.722,5.722,0,0,0-1.675-4.054l-1.259-1.25H90.99a.817.817,0,0,0,.817-.817v-21.25a.817.817,0,0,0-.817-.817Zm-2.452-2.337v2.337H70.778ZM86.9,175.913v2.534l-20.277,2.664ZM62.384,217.359H46.038v-3.269H62.384Zm-4.838-12.766a.747.747,0,0,0,.18.262l-.008.008,2.648,2.648a4.041,4.041,0,0,1,1.2,2.893v2.051H47.231l-2.738-9.587a2.715,2.715,0,0,1-.09-.678V192.08a2.383,2.383,0,0,1,.335-1.226l10.183-17.645a2.431,2.431,0,0,1,3.317-.906l.026.015a2.411,2.411,0,0,1,1.226,2.125,2.453,2.453,0,0,1-.327,1.218l-3.784,6.555H53.394a.817.817,0,0,0-.817.817V200.2a.83.83,0,0,0,.507.76.817.817,0,0,0,.9-.2l7.209-7.454a2.458,2.458,0,0,1,4.144,1.267c.016.163.033.327.041.458a2.5,2.5,0,0,1-.719,1.733L57.717,203.7a.817.817,0,0,0-.172.891Zm32.627-1.128h-29.9l5.19-5.182a8.091,8.091,0,0,0,6.734,3.547,8.173,8.173,0,1,0-7.8-10.6,4.113,4.113,0,0,0-4.373.932l-5.811,6.015V183.85H90.172Zm-23.228-9.154a4.108,4.108,0,0,0-1.112-2.141,6.557,6.557,0,1,1,.7,4.732,4.395,4.395,0,0,0,.474-1.9C67,194.785,66.977,194.572,66.945,194.311Z" transform="translate(0 0)"/>
    <path id="Path_63" data-name="Path 63" d="M325.58,369.026a.817.817,0,0,1-.817-.817h-1.635a2.452,2.452,0,0,0,1.635,2.3v.968H326.4v-.968a2.446,2.446,0,0,0-.817-4.753.817.817,0,1,1,.817-.817h1.634a2.452,2.452,0,0,0-1.634-2.3v-.968h-1.635v.968a2.446,2.446,0,0,0,.817,4.753.817.817,0,1,1,0,1.635Z" transform="translate(-253.388 -172.917)"/>
    <path id="Path_64" data-name="Path 64" d="M180.334,323.173a3.281,3.281,0,0,0,2.348-2.348h1.738V319.19h-2.452a.817.817,0,0,0-.817.817,1.635,1.635,0,0,1-1.635,1.635.817.817,0,0,0-.817.817v2.452h1.635v-1.738Z" transform="translate(-122.853 -134.523)"/>
    <path id="Path_65" data-name="Path 65" d="M463.146,331.669v1.738h1.635v-2.452a.817.817,0,0,0-.817-.817,1.635,1.635,0,0,1-1.634-1.635.817.817,0,0,0-.817-.817H459.06v1.635H460.8A3.28,3.28,0,0,0,463.146,331.669Z" transform="translate(-376.243 -142.202)"/>
    <path id="Path_66" data-name="Path 66" d="M462.329,443.034a1.634,1.634,0,0,1,1.634-1.635.817.817,0,0,0,.817-.817V438.13h-1.635v1.738a3.28,3.28,0,0,0-2.348,2.348H459.06v1.635h2.452A.817.817,0,0,0,462.329,443.034Z" transform="translate(-376.243 -242.021)"/>
  </g>
</svg>
