<svg xmlns="http://www.w3.org/2000/svg" width="39.385" height="40.657" viewBox="0 0 39.385 40.657">
  <g id="expense" transform="translate(-8.008 0)">
    <path id="Path_10" data-name="Path 10" d="M66.558,177.58H35.6a1.384,1.384,0,0,0-1.384,1.384v3.717H67.941v-3.717A1.384,1.384,0,0,0,66.558,177.58Z" transform="translate(-24.13 -163.478)" fill="#ffb125"/>
    <path id="Path_11" data-name="Path 11" d="M72.774,48.029l-2.8,28.379a1.3,1.3,0,0,1-1.418,1.163l-14.2-1.4a1.3,1.3,0,0,1-1.163-1.418l2.8-28.379a1.3,1.3,0,0,1,1.418-1.163l14.2,1.4A1.3,1.3,0,0,1,72.774,48.029Z" transform="translate(-41.584 -41.612)" fill="#b6fa4c"/>
    <path id="Path_12" data-name="Path 12" d="M101.268,46.611l-14.2-1.4a1.3,1.3,0,0,0-1.418,1.163l-.251,2.546a1.29,1.29,0,0,1,.713-.135l14.2,1.4a1.3,1.3,0,0,1,1.163,1.418L98.923,77.437a1.3,1.3,0,0,0,.7-1.028l2.8-28.379A1.3,1.3,0,0,0,101.268,46.611Z" transform="translate(-71.241 -41.612)" fill="#a8e83a"/>
    <path id="Path_13" data-name="Path 13" d="M83.766,81.256l-2.045,20.7a.783.783,0,0,0,.363.743,3.8,3.8,0,0,1,1.532,1.85.783.783,0,0,0,.654.493l7.363.727a.783.783,0,0,0,.738-.356,3.8,3.8,0,0,1,1.864-1.515.784.784,0,0,0,.5-.657l2.045-20.7a.783.783,0,0,0-.363-.743,3.8,3.8,0,0,1-1.532-1.85.783.783,0,0,0-.654-.493l-7.363-.727a.783.783,0,0,0-.738.356A3.8,3.8,0,0,1,84.268,80.6.783.783,0,0,0,83.766,81.256Z" transform="translate(-67.856 -72.473)" fill="#7d0"/>
    <path id="Path_14" data-name="Path 14" d="M119.271,81.8a3.8,3.8,0,0,1-1.532-1.85.783.783,0,0,0-.654-.493l-7.363-.727a.783.783,0,0,0-.738.356,3.8,3.8,0,0,1-1.864,1.515.784.784,0,0,0-.5.657l-.078.788,9.541.913a.783.783,0,0,1,.654.493,3.8,3.8,0,0,0,1.532,1.85.784.784,0,0,1,.363.743L116.856,104c.076-.035.153-.067.232-.1a.784.784,0,0,0,.5-.657l2.045-20.7A.784.784,0,0,0,119.271,81.8Z" transform="translate(-90.708 -72.472)" fill="#73cc00"/>
    <path id="Path_15" data-name="Path 15" d="M101.23,17.367,85.171,40.932a1.3,1.3,0,0,1-1.8.341L71.574,33.236a1.3,1.3,0,0,1-.341-1.8L87.291,7.869a1.3,1.3,0,0,1,1.8-.341l11.795,8.038A1.3,1.3,0,0,1,101.23,17.367Z" transform="translate(-57.996 -6.722)" fill="#b6fa4c"/>
    <path id="Path_16" data-name="Path 16" d="M248.179,15.564,236.385,7.527a1.3,1.3,0,0,0-1.8.341l-1.374,2.016a1.3,1.3,0,0,1,.344.166l11.795,8.038a1.3,1.3,0,0,1,.341,1.8L231,41.439a1.3,1.3,0,0,0,1.459-.508l16.059-23.565A1.3,1.3,0,0,0,248.179,15.564Z" transform="translate(-205.287 -6.721)" fill="#a8e83a"/>
    <path id="Path_17" data-name="Path 17" d="M131.026,57.929,119.311,75.12a.784.784,0,0,0-.037.826,3.8,3.8,0,0,1,.458,2.358.783.783,0,0,0,.338.747l6.114,4.167a.783.783,0,0,0,.818.041,3.8,3.8,0,0,1,2.362-.436.784.784,0,0,0,.755-.337l11.715-17.191a.784.784,0,0,0,.037-.826,3.8,3.8,0,0,1-.458-2.358.783.783,0,0,0-.338-.747L134.962,57.2a.783.783,0,0,0-.818-.041,3.8,3.8,0,0,1-2.362.436A.784.784,0,0,0,131.026,57.929Z" transform="translate(-102.338 -52.528)" fill="#7d0"/>
    <path id="Path_18" data-name="Path 18" d="M251.994,64.468a3.8,3.8,0,0,1-.458-2.358.783.783,0,0,0-.338-.747L245.084,57.2a.783.783,0,0,0-.818-.041,3.8,3.8,0,0,1-2.362.436.784.784,0,0,0-.755.337l-.488.717L248.3,63.8a.783.783,0,0,1,.338.747A3.8,3.8,0,0,0,249.1,66.9a.784.784,0,0,1-.037.826L238.8,82.79a3.789,3.789,0,0,1,.692.032.784.784,0,0,0,.755-.337l11.715-17.191A.784.784,0,0,0,251.994,64.468Z" transform="translate(-212.461 -52.528)" fill="#73cc00"/>
    <circle id="Ellipse_1" data-name="Ellipse 1" cx="4.196" cy="4.196" r="4.196" transform="translate(25.833 11.89)" fill="#b6fa4c"/>
    <path id="Path_19" data-name="Path 19" d="M49.625,229.489H17.3a2,2,0,0,1-2-2V207.746a2,2,0,0,1,2-2H49.625a2,2,0,0,1,2,2v19.748A2,2,0,0,1,49.625,229.489Z" transform="translate(-6.718 -189.412)" fill="#ffb125"/>
    <path id="Path_20" data-name="Path 20" d="M405.414,205.749h-3.63a2,2,0,0,1,2,2v19.748a2,2,0,0,1-2,2h3.63a2,2,0,0,0,2-2V207.745A2,2,0,0,0,405.414,205.749Z" transform="translate(-362.507 -189.411)" fill="#ff901d"/>
    <path id="Path_21" data-name="Path 21" d="M359.024,307.189h-7.275A3.815,3.815,0,0,0,347.934,311h0a3.815,3.815,0,0,0,3.815,3.815h7.275a.723.723,0,0,0,.723-.723v-6.183A.723.723,0,0,0,359.024,307.189Z" transform="translate(-312.933 -282.795)" fill="#ff6d3a"/>
    <path id="Path_22" data-name="Path 22" d="M359.024,307.189h-3.643a.723.723,0,0,1,.723.723v5.208a.771.771,0,0,1-.771.771h-3.584a3.814,3.814,0,0,1-3.786-3.351,3.809,3.809,0,0,0,3.786,4.278h7.275a.723.723,0,0,0,.723-.723v-6.183A.723.723,0,0,0,359.024,307.189Z" transform="translate(-312.933 -282.795)" fill="#ed5729"/>
    <path id="Path_23" data-name="Path 23" d="M49.625,205.749H17.3a2,2,0,0,0-2,2v2.187H51.621v-2.187A2,2,0,0,0,49.625,205.749Z" transform="translate(-6.718 -189.411)" fill="#ff6d3a"/>
    <path id="Path_24" data-name="Path 24" d="M407.07,206.628a2,2,0,0,0-.244-.3l0,0a2.007,2.007,0,0,0-.292-.241l-.081-.052c-.041-.025-.083-.048-.126-.07l-.084-.041a1.988,1.988,0,0,0-.825-.179h-3.63a2,2,0,0,1,2,2v2.187h3.63v-2.187a1.987,1.987,0,0,0-.241-.951C407.139,206.736,407.106,206.681,407.07,206.628Z" transform="translate(-362.508 -189.41)" fill="#ed5729"/>
    <path id="Path_25" data-name="Path 25" d="M17.3,456.218H49.624a2,2,0,0,0,2-2v-2.187H15.3v2.187A2,2,0,0,0,17.3,456.218Z" transform="translate(-6.717 -416.14)" fill="#ff6d3a"/>
    <path id="Path_26" data-name="Path 26" d="M47.99,452.035v2.19a.337.337,0,0,1-.339.331H17.3a2,2,0,0,1-2-2v1.661a2,2,0,0,0,2,2H49.625c.039,0,.078,0,.117,0l.036,0,.081-.008.04-.005.079-.013.035-.006c.037-.007.074-.015.11-.025h0l.047-.013a1.986,1.986,0,0,0,.231-.081l.088-.04.086-.044h0q.085-.046.164-.1h0c.045-.031.089-.063.131-.1l.006,0c.043-.035.084-.071.124-.109h0q.071-.067.134-.141h0a2,2,0,0,0,.181-.246l0-.007c.02-.032.039-.065.057-.1h0a2,2,0,0,0,.124-.278l.011-.033q.013-.037.024-.074l.011-.038c.007-.025.013-.051.019-.076s.006-.023.008-.035c.008-.037.015-.074.021-.111h0c.007-.044.011-.088.015-.133,0-.011,0-.023,0-.034,0-.045.005-.091.005-.137h0v-2.187H47.99Z" transform="translate(-6.718 -416.139)" fill="#ed5729"/>
    <circle id="Ellipse_2" data-name="Ellipse 2" cx="1.771" cy="1.771" r="1.771" transform="translate(37.18 26.437)" fill="#f2f2f2"/>
    <path id="Path_27" data-name="Path 27" d="M46.091,23.814h-.608v-5.48a2.573,2.573,0,0,0-1.091-2.1h0v-.746a1.965,1.965,0,0,0-1.963-1.963h-.454l1.738-2.551a1.879,1.879,0,0,0-.494-2.607L31.423.327a1.876,1.876,0,0,0-2.607.494L18.636,15.759H15.8l.683-6.919a.205.205,0,0,1,.129-.172,4.4,4.4,0,0,0,2.149-1.746.2.2,0,0,1,.192-.09l4.443.439a.579.579,0,1,0,.114-1.153l-4.443-.439a1.356,1.356,0,0,0-1.284.621,3.238,3.238,0,0,1-1.58,1.284,1.354,1.354,0,0,0-.873,1.142l-.695,7.033H13.9L14.981,4.816a.718.718,0,0,1,.785-.644l8.979.887a.579.579,0,1,0,.114-1.153L15.88,3.019A1.879,1.879,0,0,0,13.828,4.7l-.871,8.82H11.473A1.965,1.965,0,0,0,9.51,15.485v.509a2.578,2.578,0,0,0-1.5,2.34V38.082a2.578,2.578,0,0,0,2.575,2.575H42.907a2.578,2.578,0,0,0,2.575-2.575V32.6h.608a1.3,1.3,0,0,0,1.3-1.3V25.117A1.3,1.3,0,0,0,46.091,23.814Zm-3.663-9.133a.805.805,0,0,1,.8.8v.3a2.582,2.582,0,0,0-.325-.021H40.449l.735-1.078h1.244ZM29.774,1.473a.713.713,0,0,1,.46-.3.728.728,0,0,1,.135-.013.713.713,0,0,1,.4.125L42.566,9.322a.719.719,0,0,1,.189,1l-3.707,5.44h-.89l1.818-2.667a1.354,1.354,0,0,0,.063-1.437,3.238,3.238,0,0,1-.388-2,1.355,1.355,0,0,0-.586-1.3L32.95,4.19a1.355,1.355,0,0,0-1.425-.07,3.238,3.238,0,0,1-2,.37,1.371,1.371,0,0,0-1.314.584L20.928,15.759h-.89Zm.255,9.838a4.78,4.78,0,0,0-4.763,4.448H22.33L29.167,5.726h0a.207.207,0,0,1,.169-.091l.026,0a4.4,4.4,0,0,0,2.723-.5.2.2,0,0,1,.212.013l6.114,4.167a.2.2,0,0,1,.09.193,4.4,4.4,0,0,0,.528,2.718.206.206,0,0,1-.011.215l-2.262,3.32H34.792A4.781,4.781,0,0,0,30.029,11.311Zm3.6,4.448h-7.2a3.616,3.616,0,0,1,7.2,0Zm-22.961-.274a.805.805,0,0,1,.8-.8h1.369l-.106,1.078H10.669Zm-1.5,2.849a1.418,1.418,0,0,1,1.416-1.416H42.907a1.418,1.418,0,0,1,1.416,1.416v1.608H9.167ZM44.324,35.316H16a.579.579,0,0,0,0,1.159H44.324v1.608A1.418,1.418,0,0,1,42.907,39.5H10.583a1.418,1.418,0,0,1-1.416-1.416V36.475h3.124a.579.579,0,0,0,0-1.159H9.167V21.1H44.324v2.714H38.815a4.4,4.4,0,0,0-3.952,2.476l-.008.015-.017.038a4.368,4.368,0,0,0-.219.56v0a4.38,4.38,0,0,0-.2,1.3h0A4.4,4.4,0,0,0,38.815,32.6h5.508v2.714h0ZM46.235,31.3a.144.144,0,0,1-.144.144H38.815a3.238,3.238,0,0,1-2.844-1.694q-.037-.069-.072-.139-.068-.141-.123-.29a3.239,3.239,0,0,1,0-2.222q.055-.149.123-.29.034-.071.072-.139a3.238,3.238,0,0,1,2.844-1.694h7.275a.144.144,0,0,1,.144.144Z" transform="translate(0 0)"/>
    <path id="Path_28" data-name="Path 28" d="M370.431,325.627a2.35,2.35,0,1,0,2.35,2.351A2.353,2.353,0,0,0,370.431,325.627Zm0,3.542a1.192,1.192,0,1,1,1.192-1.192A1.193,1.193,0,0,1,370.431,329.169Z" transform="translate(-331.48 -299.769)"/>
  </g>
</svg>
