<svg xmlns="http://www.w3.org/2000/svg" width="42.641" height="36.421" viewBox="0 0 42.641 36.421">
  <g id="item" transform="translate(0 -37.344)">
    <rect id="Rectangle_3" data-name="Rectangle 3" width="35.229" height="23.278" transform="translate(3.498 49.891)" fill="#ffce54"/>
    <path id="Path_1" data-name="Path 1" d="M15.582,90.358l-.874,2.705L13,98.1l1.083,2.915,4.289.375L21,98.727l.832-8.383Z" transform="translate(-11.917 -48.586)" fill="#ed5564"/>
    <path id="Path_2" data-name="Path 2" d="M110.361,90.344,109,98.727l2.3,2.971,2.824.333,2.729-2.444.825-9.243Z" transform="translate(-99.922 -48.586)" fill="#f5f7fa"/>
    <path id="Path_3" data-name="Path 3" d="M213.1,95.328h-6.94l-.9,7.041,1.672,3.119,3.554.472,2.609-1.36.333-2.61Z" transform="translate(-188.171 -53.155)" fill="#ed5564"/>
    <path id="Path_4" data-name="Path 4" d="M306.9,90.344l-7.551.415.61,7.662,1.722,2.971,3.664.306,1.888-1.611.333-2Z" transform="translate(-274.414 -48.586)" fill="#f5f7fa"/>
    <path id="Path_5" data-name="Path 5" d="M400.789,90.344l-6.289.415.293,4.2.644,4.955,2.29,1.874,3.062-.208,2.039-1.166.458-3.831Z" transform="translate(-361.645 -48.586)" fill="#ed5564"/>
    <rect id="Rectangle_4" data-name="Rectangle 4" width="33.757" height="4.081" transform="translate(4.442 37.677)" fill="#f5f7fa"/>
    <g id="Group_1" data-name="Group 1" transform="translate(6.885 56.776)">
      <rect id="Rectangle_5" data-name="Rectangle 5" width="15.935" height="10.715" fill="#4fc2e9"/>
      <rect id="Rectangle_6" data-name="Rectangle 6" width="9.273" height="16.101" transform="translate(19.71)" fill="#4fc2e9"/>
    </g>
    <path id="Path_6" data-name="Path 6" d="M42.579,48.353l-.029-.161c-.005-.023-.008-.049-.013-.073L39.547,40.9V37.344H3.045V40.9L.1,48.119c-.006.029-.01.057-.016.085l-.027.15A5.131,5.131,0,0,0,0,49.146a5.072,5.072,0,0,0,2.665,4.467V73.765H39.976V53.613a5.074,5.074,0,0,0,2.665-4.467A5.132,5.132,0,0,0,42.579,48.353ZM40.571,48H34.043l-.785-5.276h5.164ZM4.823,39.119H37.77V40.9H4.823Zm27.689,10.66.1.645-.526.7a3.3,3.3,0,0,1-5.281,0l-.536-.716-.031-.63ZM26.147,48l-.259-5.276h5.573L32.248,48Zm-1.692,1.775.031.645-.527.7a3.3,3.3,0,0,1-5.281,0l-.539-.72.031-.626h6.284ZM18.261,48l.267-5.276h5.583L24.368,48ZM10.4,48l.776-5.276H16.75L16.482,48Zm5.989,1.775-.033.652-.521.694a3.3,3.3,0,0,1-5.281,0l-.513-.683.1-.662ZM4.218,42.729H9.382L8.607,48H2.069Zm-2.38,7.05H8.346l-.118.662-.511.683a3.3,3.3,0,0,1-5.879-1.346ZM34.646,71.99H27.538V65.77h.889a.887.887,0,1,0,0-1.775h-.889v-6.22h7.108Zm3.553,0H36.422V56H25.762V71.99H4.441V54.183a5.087,5.087,0,0,0,4.7-1.991,5.078,5.078,0,0,0,8.123,0,5.076,5.076,0,0,0,8.121,0,5.078,5.078,0,0,0,8.123,0,5.087,5.087,0,0,0,4.7,1.991Zm-.635-19.546a3.277,3.277,0,0,1-2.639-1.32l-.491-.652-.126-.694H40.8A3.3,3.3,0,0,1,37.563,52.444Z"/>
    <path id="Path_7" data-name="Path 7" d="M74.656,273.779H92.424V261.344H74.656Zm1.778-10.66H90.646V272H76.434Z" transform="translate(-68.438 -205.345)"/>
    <path id="Path_8" data-name="Path 8" d="M215.915,336a.882.882,0,0,0-.629.26h0l-1.776,1.778h0a.887.887,0,0,0,1.256,1.254h0l1.776-1.775h0a.889.889,0,0,0-.627-1.517Z" transform="translate(-195.49 -273.783)"/>
    <path id="Path_9" data-name="Path 9" d="M176.8,293.344a.882.882,0,0,0-.629.26l-5.33,5.329a.888.888,0,1,0,1.256,1.256l5.33-5.329a.888.888,0,0,0-.627-1.516Z" transform="translate(-156.372 -234.679)"/>
  </g>
</svg>
