<svg xmlns="http://www.w3.org/2000/svg" width="60" height="60.007" viewBox="0 0 60 60.007">
  <g id="purchase_rpt" transform="translate(-8 -7.938)">
    <g id="Group_4" data-name="Group 4" transform="translate(8.968 8.913)">
      <path id="Path_67" data-name="Path 67" d="M74.064,376v2.9a2.9,2.9,0,0,1-2.9,2.9H18.9a2.9,2.9,0,0,1-2.9-2.9V376Z" transform="translate(-16 -332.452)" fill="#57565c"/>
      <path id="Path_68" data-name="Path 68" d="M74.064,138.9v26.129H16V138.9a2.9,2.9,0,0,1,2.9-2.9H71.161a2.9,2.9,0,0,1,2.9,2.9Z" transform="translate(-16 -121.484)" fill="#bddbff"/>
      <path id="Path_69" data-name="Path 69" d="M213.548,429.806H200L201.935,424h9.677Z" transform="translate(-177.742 -374.645)" fill="#e0e0e2"/>
      <path id="Path_70" data-name="Path 70" d="M168,472h21.29v2.9H168Z" transform="translate(-149.613 -416.839)" fill="#57565c"/>
      <path id="Path_71" data-name="Path 71" d="M48,160h3.871v6.774H48Z" transform="translate(-44.129 -142.581)" fill="#ab2300"/>
      <path id="Path_72" data-name="Path 72" d="M272,160h3.871v6.774H272Z" transform="translate(-241.032 -142.581)" fill="#ff9811"/>
      <path id="Path_73" data-name="Path 73" d="M104,72h3.871V89.419H104Z" transform="translate(-93.355 -65.226)" fill="#83d8f4"/>
      <path id="Path_74" data-name="Path 74" d="M160,16h3.871V40.194H160Z" transform="translate(-142.581 -16)" fill="#91cc04"/>
      <path id="Path_75" data-name="Path 75" d="M216,48h3.871V68.323H216Z" transform="translate(-191.806 -44.129)" fill="#ffda44"/>
      <circle id="Ellipse_4" data-name="Ellipse 4" cx="1.935" cy="1.935" r="1.935" transform="translate(3.871 31.935)" fill="#83d8f4"/>
      <circle id="Ellipse_5" data-name="Ellipse 5" cx="1.935" cy="1.935" r="1.935" transform="translate(19.355 36.774)" fill="#91cc04"/>
      <circle id="Ellipse_6" data-name="Ellipse 6" cx="1.935" cy="1.935" r="1.935" transform="translate(34.839 28.064)" fill="#ab2300"/>
      <circle id="Ellipse_7" data-name="Ellipse 7" cx="1.935" cy="1.935" r="1.935" transform="translate(50.323 34.839)" fill="#ff9811"/>
      <g id="Group_3" data-name="Group 3" transform="translate(7.742 30)">
        <path id="Path_76" data-name="Path 76" d="M80,296l11.613,4.839" transform="translate(-80 -292.129)" fill="#e0e0e2"/>
        <path id="Path_77" data-name="Path 77" d="M208,272.71,219.613,264" transform="translate(-192.516 -264)" fill="#e0e0e2"/>
        <path id="Path_78" data-name="Path 78" d="M336,264l11.613,6.774" transform="translate(-305.032 -264)" fill="#e0e0e2"/>
      </g>
      <path id="Path_79" data-name="Path 79" d="M375.957,80a7.743,7.743,0,0,1-13.217,5.475L368.215,80Z" transform="translate(-320.796 -72.258)" fill="#83d8f4"/>
      <path id="Path_80" data-name="Path 80" d="M351.74,16v7.742l-5.475,5.475A7.743,7.743,0,0,1,351.74,16Z" transform="translate(-304.321 -16)" fill="#ffda44"/>
      <path id="Path_81" data-name="Path 81" d="M415.742,23.742H408V16A7.742,7.742,0,0,1,415.742,23.742Z" transform="translate(-360.581 -16)" fill="#ab2300"/>
    </g>
    <g id="Group_5" data-name="Group 5" transform="translate(8 7.938)">
      <path id="Path_82" data-name="Path 82" d="M64.129,22.461H62.872a8.71,8.71,0,1,0-12.97,0H38V12.784a.968.968,0,0,0-.968-.968H33.161a.968.968,0,0,0-.968.968v9.677h-.968V8.913a.968.968,0,0,0-.968-.968H26.387a.968.968,0,0,0-.968.968V22.461h-.968V15.687a.968.968,0,0,0-.968-.968H19.613a.968.968,0,0,0-.968.968v6.774H11.871A3.875,3.875,0,0,0,8,26.332V55.365a3.875,3.875,0,0,0,3.871,3.871H31.819l-1.291,3.871H27.355a.968.968,0,0,0-.968.968V66.01H16.71a.968.968,0,1,0,0,1.935H59.29a.968.968,0,1,0,0-1.935H49.613V64.074a.968.968,0,0,0-.968-.968H45.472l-1.291-3.871H64.129A3.875,3.875,0,0,0,68,55.365V26.332A3.875,3.875,0,0,0,64.129,22.461ZM57.355,9.951a6.787,6.787,0,0,1,5.736,5.736H57.355Zm-.567,7.672h6.3a6.77,6.77,0,0,1-10.759,4.455Zm-7.175-.968a6.785,6.785,0,0,1,5.806-6.7v6.3L50.964,20.71A6.739,6.739,0,0,1,49.613,16.655Zm-15.484-2.9h1.935V32.139H34.129ZM31.226,24.4h.968v7.742h-.968ZM27.355,9.881H29.29V32.139H27.355ZM24.452,24.4h.968v7.742h-.968Zm-3.871-7.742h1.935V32.139H20.581Zm27.1,48.387v.968H28.323v-.968ZM32.569,63.107l1.291-3.871h8.281l1.291,3.871Zm33.5-7.742A1.938,1.938,0,0,1,64.129,57.3H11.871a1.938,1.938,0,0,1-1.935-1.935V53.429H66.064Zm0-3.871H9.935V26.332A1.938,1.938,0,0,1,11.871,24.4h6.774v7.742h-.968V26.332a.968.968,0,0,0-.968-.968H12.839a.968.968,0,0,0-.968.968v6.774a.968.968,0,0,0,.968.968H43.806a.968.968,0,0,0,.968-.968V26.332a.968.968,0,0,0-.968-.968H39.935a.968.968,0,0,0-.968.968v5.806H38V24.4H52.4a8.677,8.677,0,0,0,7.965,0h3.76a1.938,1.938,0,0,1,1.935,1.935ZM15.742,27.3v4.839H13.806V27.3ZM40.9,32.139V27.3h1.935v4.839Z" transform="translate(-8 -7.938)"/>
      <path id="Path_83" data-name="Path 83" d="M46.774,392H40.968a.968.968,0,0,0,0,1.935h5.806a.968.968,0,0,0,0-1.935Z" transform="translate(-36.129 -345.541)"/>
      <path id="Path_84" data-name="Path 84" d="M113.935,392h-.968a.968.968,0,0,0,0,1.935h.968a.968.968,0,0,0,0-1.935Z" transform="translate(-99.419 -345.541)"/>
      <path id="Path_85" data-name="Path 85" d="M336.967,165.806a.965.965,0,0,0,.684-.283l3.587-3.588h8.309a.968.968,0,1,0,0-1.935h-8.71a.968.968,0,0,0-.684.283l-3.871,3.871a.968.968,0,0,0,.684,1.652Z" transform="translate(-296.322 -141.605)"/>
      <path id="Path_86" data-name="Path 86" d="M89.329,246.774a2.9,2.9,0,0,0-2.51,1.448l-10.131-5.91a2.9,2.9,0,0,0-5.7.073l-10.2,7.646a2.9,2.9,0,0,0-5.018.264L45.7,246.1a2.9,2.9,0,1,0-.237,2l10.077,4.2a2.9,2.9,0,0,0,5.678-.16l10.2-7.646a2.9,2.9,0,0,0,4.943-.127l10.131,5.91a2.9,2.9,0,1,0,2.843-3.495Zm-45.484,0a.97.97,0,1,1-.971-.973.97.97,0,0,1,.971.973Zm14.516,5.8a.969.969,0,0,1-.968-.968v0a.968.968,0,1,1,.968.973Zm15.484-8.71a.968.968,0,1,1,.968-.968A.968.968,0,0,1,73.845,243.871Zm15.484,6.774a.968.968,0,1,1,.968-.968A.968.968,0,0,1,89.329,250.645Z" transform="translate(-36.103 -211.928)"/>
      <path id="Path_87" data-name="Path 87" d="M327.742,344h-6.774a.968.968,0,1,0,0,1.935h6.774a.968.968,0,0,0,0-1.935Z" transform="translate(-282.258 -303.347)"/>
      <path id="Path_88" data-name="Path 88" d="M355.871,320h-2.9a.968.968,0,1,0,0,1.935h2.9a.968.968,0,0,0,0-1.935Z" transform="translate(-310.387 -282.251)"/>
      <path id="Path_89" data-name="Path 89" d="M40.968,233.935H51.613a.968.968,0,1,0,0-1.935H40.968a.968.968,0,1,0,0,1.935Z" transform="translate(-36.129 -204.896)"/>
      <path id="Path_90" data-name="Path 90" d="M152.968,233.935h.968a.968.968,0,0,0,0-1.935h-.968a.968.968,0,0,0,0,1.935Z" transform="translate(-134.581 -204.896)"/>
    </g>
  </g>
</svg>
