<svg id="sales_reciept" xmlns="http://www.w3.org/2000/svg" width="35.292" height="37.813" viewBox="0 0 35.292 37.813">
  <rect id="Rectangle_7" data-name="Rectangle 7" width="34.14" height="8.77" rx="4.385" transform="translate(34.67 9.518) rotate(180)" fill="#6a7073"/>
  <rect id="Rectangle_8" data-name="Rectangle 8" width="34.14" height="8.77" rx="4.385" transform="translate(34.67 12.024) rotate(180)" fill="#7e8589"/>
  <rect id="Rectangle_9" data-name="Rectangle 9" width="29.128" height="3.758" rx="1.879" transform="translate(32.165 9.518) rotate(180)" fill="#6a7073"/>
  <path id="Path_29" data-name="Path 29" d="M112,88v31.511l1.26-1.891,1.26,1.891,1.26-1.891,1.26,1.891,1.26-1.891,1.26,1.891,1.26-1.891,1.26,1.891,1.26-1.891,1.26,1.891,1.26-1.891,1.26,1.891,1.26-1.891,1.26,1.891,1.26-1.891,1.26,1.891,1.26-1.891,1.26,1.891V88Z" transform="translate(-105.698 -82.328)" fill="#e9eef2"/>
  <circle id="Ellipse_3" data-name="Ellipse 3" cx="3.758" cy="3.758" r="3.758" transform="translate(17.131 20.793)" fill="#ffd33a"/>
  <path id="Path_30" data-name="Path 30" d="M38.12,53.786a.63.63,0,0,0,.707-.254l.736-1.1.736,1.1a.63.63,0,0,0,1.049,0l.736-1.1.736,1.1a.63.63,0,0,0,1.049,0l.736-1.1.736,1.1a.63.63,0,0,0,1.049,0l.736-1.1.736,1.1a.63.63,0,0,0,1.049,0l.736-1.1.736,1.1a.63.63,0,0,0,1.049,0l.736-1.1.736,1.1a.63.63,0,0,0,1.049,0l.736-1.1.736,1.1a.63.63,0,0,0,1.049,0l.736-1.1.736,1.1a.63.63,0,0,0,1.049,0l.736-1.1.736,1.1a.63.63,0,0,0,1.155-.35V28.6h2.521a3.155,3.155,0,0,0,3.151-3.151v-6.3A3.155,3.155,0,0,0,64.141,16H35.151A3.155,3.155,0,0,0,32,19.151v6.3A3.155,3.155,0,0,0,35.151,28.6h2.521V53.183a.63.63,0,0,0,.448.6Zm-.448-28.963h-1.26a.631.631,0,0,1-.63-.63v-1.26a.631.631,0,0,1,.63-.63h1.26Zm22.688-1.26a.63.63,0,0,0,0,1.26V51.1l-.106-.159a.63.63,0,0,0-1.049,0l-.736,1.1-.736-1.1a.63.63,0,0,0-1.049,0l-.736,1.1-.736-1.1a.63.63,0,0,0-1.049,0l-.736,1.1-.736-1.1a.63.63,0,0,0-1.049,0l-.736,1.1-.736-1.1a.63.63,0,0,0-1.049,0l-.736,1.1-.736-1.1a.63.63,0,0,0-1.049,0l-.736,1.1-.736-1.1a.63.63,0,0,0-1.049,0l-.736,1.1-.736-1.1a.63.63,0,0,0-1.049,0l-.736,1.1-.736-1.1a.63.63,0,0,0-1.049,0l-.106.159V24.823a.63.63,0,0,0,0-1.26V22.3H60.36Zm-27.1-4.412a1.893,1.893,0,0,1,1.891-1.891h28.99a1.893,1.893,0,0,1,1.891,1.891v0a3.134,3.134,0,0,0-1.891-.632H35.151a3.134,3.134,0,0,0-1.891.632Zm1.891,8.193a1.893,1.893,0,0,1-1.891-1.891V21.672a1.893,1.893,0,0,1,1.891-1.891h28.99a1.893,1.893,0,0,1,1.891,1.891v3.781a1.893,1.893,0,0,1-1.891,1.891H61.62v-1.26h1.26a1.893,1.893,0,0,0,1.891-1.891v-1.26a1.893,1.893,0,0,0-1.891-1.891H36.411a1.893,1.893,0,0,0-1.891,1.891v1.26a1.893,1.893,0,0,0,1.891,1.891h1.26v1.26ZM61.62,24.823V22.3h1.26a.631.631,0,0,1,.63.63v1.26a.631.631,0,0,1-.63.63Z" transform="translate(-32 -16)"/>
  <path id="Path_31" data-name="Path 31" d="M344.63,113.26h.63a.63.63,0,0,0,0-1.26h-.63a.63.63,0,0,0,0,1.26Z" transform="translate(-319.421 -104.437)"/>
  <path id="Path_32" data-name="Path 32" d="M304.63,113.26h.63a.63.63,0,0,0,0-1.26h-.63a.63.63,0,0,0,0,1.26Z" transform="translate(-282.573 -104.437)"/>
  <path id="Path_33" data-name="Path 33" d="M264.63,113.26h.63a.63.63,0,0,0,0-1.26h-.63a.63.63,0,0,0,0,1.26Z" transform="translate(-245.724 -104.437)"/>
  <path id="Path_34" data-name="Path 34" d="M224.63,113.26h.63a.63.63,0,0,0,0-1.26h-.63a.63.63,0,0,0,0,1.26Z" transform="translate(-208.875 -104.437)"/>
  <path id="Path_35" data-name="Path 35" d="M184.63,113.26h.63a.63.63,0,0,0,0-1.26h-.63a.63.63,0,0,0,0,1.26Z" transform="translate(-172.026 -104.437)"/>
  <path id="Path_36" data-name="Path 36" d="M144.63,113.26h.63a.63.63,0,0,0,0-1.26h-.63a.63.63,0,0,0,0,1.26Z" transform="translate(-135.177 -104.437)"/>
  <path id="Path_37" data-name="Path 37" d="M232,269.042A5.042,5.042,0,1,0,237.042,264,5.042,5.042,0,0,0,232,269.042Zm5.042-3.781a3.781,3.781,0,1,1-3.781,3.781A3.781,3.781,0,0,1,237.042,265.26Z" transform="translate(-216.245 -244.463)"/>
  <path id="Path_38" data-name="Path 38" d="M280,299.781a1,1,0,1,0,1.891.63v-.171a1.259,1.259,0,0,0-.63-2.35h.63a1,1,0,1,0-1.26-1.26v.171a1.259,1.259,0,0,0,.63,2.35h-.63A.63.63,0,0,0,280,299.781Z" transform="translate(-260.461 -273.942)"/>
  <path id="Path_39" data-name="Path 39" d="M152.63,201.26h7.563a.63.63,0,0,0,0-1.26H152.63a.63.63,0,0,0,0,1.26Z" transform="translate(-142.547 -185.505)"/>
  <path id="Path_40" data-name="Path 40" d="M312.63,201.26h2.521a.63.63,0,0,0,0-1.26H312.63a.63.63,0,1,0,0,1.26Z" transform="translate(-289.942 -185.505)"/>
  <path id="Path_41" data-name="Path 41" d="M152,168.63a.63.63,0,0,0,.63.63h7.563a.63.63,0,0,0,0-1.26H152.63A.63.63,0,0,0,152,168.63Z" transform="translate(-142.547 -156.026)"/>
  <path id="Path_42" data-name="Path 42" d="M312.63,169.26h2.521a.63.63,0,0,0,0-1.26H312.63a.63.63,0,0,0,0,1.26Z" transform="translate(-289.942 -156.026)"/>
  <path id="Path_43" data-name="Path 43" d="M160.823,232.63a.63.63,0,0,0-.63-.63H152.63a.63.63,0,0,0,0,1.26h7.563A.63.63,0,0,0,160.823,232.63Z" transform="translate(-142.547 -214.984)"/>
  <path id="Path_44" data-name="Path 44" d="M312.63,233.26h2.521a.63.63,0,0,0,0-1.26H312.63a.63.63,0,1,0,0,1.26Z" transform="translate(-289.942 -214.984)"/>
  <path id="Path_45" data-name="Path 45" d="M155.151,352H152.63a.63.63,0,1,0,0,1.26h2.521a.63.63,0,0,0,0-1.26Z" transform="translate(-142.547 -325.531)"/>
  <path id="Path_46" data-name="Path 46" d="M155.151,320H152.63a.63.63,0,1,0,0,1.26h2.521a.63.63,0,0,0,0-1.26Z" transform="translate(-142.547 -296.052)"/>
  <path id="Path_47" data-name="Path 47" d="M155.151,288H152.63a.63.63,0,1,0,0,1.26h2.521a.63.63,0,0,0,0-1.26Z" transform="translate(-142.547 -266.573)"/>
  <path id="Path_48" data-name="Path 48" d="M219.974,416H208.63a.63.63,0,1,0,0,1.26h11.344a.63.63,0,0,0,0-1.26Z" transform="translate(-194.135 -384.489)"/>
</svg>
